# xmcd
#
# Track frame offsets: 
#        150
#        20309
#        48338
#        82082
#        110996
#        143102
#        192853
#        213082
#        242452
#        258283
#        320336
#
# Disc length: 4676 seconds
#
# Revision: 0
# Processed by: cddbd v1.5.2PL0 Copyright (c) Steve Scherf et al.
# Submitted via: ExactAudioCopyFreeDBPlugin 1.0
#
DISCID=9212420b
DTITLE=Ken Hensley and Live Fire - 2008 - Blood On The Highway [DVD] Cd 
DTITLE=2
DYEAR=2008
DGENRE=
TTITLE0=Out Of My Control
TTITLE1=Brown Eyed Boy 
TTITLE2=Circle Of Hands 
TTITLE3=The Wizard 
TTITLE4=Free Me [ft. John Lawton]
TTITLE5=July Morning [ft.John Lawton]
TTITLE6=Rain [ft. JohnLawton and Eve Gallagher]
TTITLE7=Stealin' 
TTITLE8=Easy Living 
TTITLE9=Lady In Black 
TTITLE10=Gypsy 
EXTD=
EXTT0=
EXTT1=
EXTT2=
EXTT3=
EXTT4=
EXTT5=
EXTT6=
EXTT7=
EXTT8=
EXTT9=
EXTT10=
PLAYORDER=
